<?xml version="1.0" encoding="utf-8"?>
<!-- Generator: Adobe Illustrator 16.0.0, SVG Export Plug-In . SVG Version: 6.00 Build 0)  -->
<!DOCTYPE svg PUBLIC "-//W3C//DTD SVG 1.1//EN" "http://www.w3.org/Graphics/SVG/1.1/DTD/svg11.dtd">
<svg version="1.1" id="图层_1" xmlns="http://www.w3.org/2000/svg" xmlns:xlink="http://www.w3.org/1999/xlink" x="0px" y="0px"
	 width="100%" viewBox="0 0 1400 500" enable-background="new 0 0 1400 500" xml:space="preserve">
<rect id="6" x="572.693" y="336.404" fill="#13AE67" width="60" height="60"/>
<rect id="4" x="792.692" y="336.404" fill="#13AE67" width="60" height="60"/>
<rect id="_x31_05" x="1020.806" y="336.404" fill="#F8B62D" width="80" height="60"/>
<rect id="_x31_19" x="325.249" y="336.404" fill="#F8B62D" width="80" height="60"/>
<rect id="9" x="407.249" y="336.404" fill="#F8B62D" width="80" height="59.999"/>
<rect id="_x31_07" x="937.456" y="336.405" fill="#F8B62D" width="80.001" height="60"/>
<rect id="3" x="854.692" y="336.404" fill="#F8B62D" width="80" height="60"/>
<rect id="8" x="490.407" y="336.403" fill="#F8B62D" width="80" height="60"/>
<rect id="_x31_21" x="222.22" y="336.405" fill="#13AE67" width="60" height="60"/>
<rect id="_x31_16" x="265.22" y="155.259" fill="#F8B62D" width="80" height="60"/>
<rect id="_x31_04" x="993.693" y="156.124" fill="#F8B62D" width="79.999" height="60"/>
<rect id="_x31_06" x="909.406" y="155.26" fill="#F8B62D" width="80" height="60"/>
<rect id="7" x="349.407" y="155.259" fill="#F8B62D" width="80" height="60"/>
<rect id="_x31_12" x="434.407" y="155.26" fill="#F8B62D" width="80" height="60"/>
<rect id="_x31_02" x="1077.221" y="156.124" fill="#F8B62D" width="80" height="60"/>
<rect x="222.22" y="155.259" fill="#E83828" width="40" height="60"/>
<rect x="1159.221" y="155.26" fill="#E83828" width="40" height="60"/>
<rect id="_x31_03" x="1140.22" y="336.023" fill="#13AE67" width="60" height="60"/>
<rect id="2" x="1201.221" y="155.26" fill="#00A0E9" width="80" height="240"/>
<rect id="_x31_10" x="572.693" y="156.124" fill="#13AE67" width="60" height="60"/>
<rect id="_x31_08" x="792.693" y="155.26" fill="#13AE67" width="59.999" height="60"/>
<g id="stair2">
	<rect x="518.407" y="156.124" fill="#595757" width="50" height="60"/>
	<line fill="none" x1="518.407" y1="186.124" x2="568.407" y2="186.124"/>
	<line fill="none" stroke="#FFFFFF" stroke-miterlimit="10" x1="518.407" y1="186.124" x2="568.407" y2="186.124"/>
	<line fill="none" stroke="#FFFFFF" stroke-miterlimit="10" x1="518.407" y1="200.531" x2="568.407" y2="200.864"/>
	<line fill="none" stroke="#FFFFFF" stroke-miterlimit="10" x1="518.407" y1="178.864" x2="568.407" y2="178.531"/>
	<line fill="none" stroke="#FFFFFF" stroke-miterlimit="10" x1="518.407" y1="193.709" x2="568.407" y2="193.709"/>
	<line fill="none" stroke="#FFFFFF" stroke-miterlimit="10" x1="518.407" y1="208.531" x2="568.407" y2="208.864"/>
	<line fill="none" stroke="#FFFFFF" stroke-miterlimit="10" x1="543.407" y1="156.124" x2="543.407" y2="216.124"/>
</g>
<g id="stair2_1_">
	<rect x="856.406" y="155.26" fill="#595757" width="50" height="60"/>
	<line fill="none" x1="856.406" y1="185.26" x2="906.406" y2="185.26"/>
	<line fill="none" stroke="#FFFFFF" stroke-miterlimit="10" x1="856.406" y1="185.26" x2="906.406" y2="185.26"/>
	<line fill="none" stroke="#FFFFFF" stroke-miterlimit="10" x1="856.406" y1="199.667" x2="906.406" y2="200"/>
	<line fill="none" stroke="#FFFFFF" stroke-miterlimit="10" x1="856.406" y1="178" x2="906.406" y2="177.667"/>
	<line fill="none" stroke="#FFFFFF" stroke-miterlimit="10" x1="856.406" y1="192.846" x2="906.406" y2="192.846"/>
	<line fill="none" stroke="#FFFFFF" stroke-miterlimit="10" x1="856.406" y1="207.667" x2="906.406" y2="208"/>
	<line fill="none" stroke="#FFFFFF" stroke-miterlimit="10" x1="881.406" y1="155.26" x2="881.406" y2="215.26"/>
</g>
<g id="stair3">
	<rect x="473.407" y="302.622" fill="#595757" width="40" height="15"/>
	<path fill="none" stroke="#FFFFFF" stroke-miterlimit="10" d="M477.569,317.622"/>
	<path fill="none" stroke="#FFFFFF" stroke-miterlimit="10" d="M477.569,302.622"/>
	<path fill="none" stroke="#FFFFFF" stroke-miterlimit="10" d="M481.236,302.622"/>
	<path fill="none" stroke="#FFFFFF" stroke-miterlimit="10" d="M481.236,317.622"/>
	<path fill="none" stroke="#FFFFFF" stroke-miterlimit="10" d="M485.236,302.622"/>
	<path fill="none" stroke="#FFFFFF" stroke-miterlimit="10" d="M485.236,317.622"/>
	<path fill="none" stroke="#FFFFFF" stroke-miterlimit="10" d="M488.903,317.622"/>
	<path fill="none" stroke="#FFFFFF" stroke-miterlimit="10" d="M488.903,302.622"/>
	<path fill="none" stroke="#FFFFFF" stroke-miterlimit="10" d="M491.569,317.622"/>
	<path fill="none" stroke="#FFFFFF" stroke-miterlimit="10" d="M491.903,302.622"/>
	<path fill="none" stroke="#FFFFFF" stroke-miterlimit="10" d="M496.569,317.622"/>
	<path fill="none" stroke="#FFFFFF" stroke-miterlimit="10" d="M496.569,302.622"/>
	<path fill="none" stroke="#FFFFFF" stroke-miterlimit="10" d="M501.236,317.622"/>
	<path fill="none" stroke="#FFFFFF" stroke-miterlimit="10" d="M501.236,302.622"/>
	<path fill="none" stroke="#FFFFFF" stroke-miterlimit="10" d="M505.903,317.622"/>
	<path fill="none" stroke="#FFFFFF" stroke-miterlimit="10" d="M505.903,302.622"/>
	<line fill="none" stroke="#FFFFFF" stroke-miterlimit="10" x1="493.407" y1="302.622" x2="493.407" y2="317.622"/>
	<line fill="none" stroke="#FFFFFF" stroke-miterlimit="10" x1="503.236" y1="302.622" x2="503.236" y2="317.622"/>
	<line fill="none" stroke="#FFFFFF" stroke-miterlimit="10" x1="483.236" y1="302.622" x2="483.236" y2="317.622"/>
	<line fill="none" stroke="#FFFFFF" stroke-miterlimit="10" x1="508.903" y1="302.622" x2="508.903" y2="317.622"/>
	<line fill="none" stroke="#FFFFFF" stroke-miterlimit="10" x1="498.407" y1="302.622" x2="498.407" y2="317.622"/>
	<line fill="none" stroke="#FFFFFF" stroke-miterlimit="10" x1="487.903" y1="302.622" x2="487.903" y2="317.622"/>
	<line fill="none" stroke="#FFFFFF" stroke-miterlimit="10" x1="477.569" y1="302.622" x2="477.569" y2="317.622"/>
</g>
<g id="stair3_1_">
	<rect x="906.406" y="237.5" fill="#595757" width="40" height="15"/>
	<path fill="none" stroke="#FFFFFF" stroke-miterlimit="10" d="M910.569,252.5"/>
	<path fill="none" stroke="#FFFFFF" stroke-miterlimit="10" d="M910.569,237.5"/>
	<path fill="none" stroke="#FFFFFF" stroke-miterlimit="10" d="M914.235,237.5"/>
	<path fill="none" stroke="#FFFFFF" stroke-miterlimit="10" d="M914.235,252.5"/>
	<path fill="none" stroke="#FFFFFF" stroke-miterlimit="10" d="M918.235,237.5"/>
	<path fill="none" stroke="#FFFFFF" stroke-miterlimit="10" d="M918.235,252.5"/>
	<path fill="none" stroke="#FFFFFF" stroke-miterlimit="10" d="M921.902,252.5"/>
	<path fill="none" stroke="#FFFFFF" stroke-miterlimit="10" d="M921.902,237.5"/>
	<path fill="none" stroke="#FFFFFF" stroke-miterlimit="10" d="M924.569,252.5"/>
	<path fill="none" stroke="#FFFFFF" stroke-miterlimit="10" d="M924.902,237.5"/>
	<path fill="none" stroke="#FFFFFF" stroke-miterlimit="10" d="M929.569,252.5"/>
	<path fill="none" stroke="#FFFFFF" stroke-miterlimit="10" d="M929.569,237.5"/>
	<path fill="none" stroke="#FFFFFF" stroke-miterlimit="10" d="M934.235,252.5"/>
	<path fill="none" stroke="#FFFFFF" stroke-miterlimit="10" d="M934.235,237.5"/>
	<path fill="none" stroke="#FFFFFF" stroke-miterlimit="10" d="M938.902,252.5"/>
	<path fill="none" stroke="#FFFFFF" stroke-miterlimit="10" d="M938.902,237.5"/>
	<line fill="none" stroke="#FFFFFF" stroke-miterlimit="10" x1="926.406" y1="237.5" x2="926.406" y2="252.5"/>
	<line fill="none" stroke="#FFFFFF" stroke-miterlimit="10" x1="936.235" y1="237.5" x2="936.235" y2="252.5"/>
	<line fill="none" stroke="#FFFFFF" stroke-miterlimit="10" x1="916.235" y1="237.5" x2="916.235" y2="252.5"/>
	<line fill="none" stroke="#FFFFFF" stroke-miterlimit="10" x1="941.902" y1="237.5" x2="941.902" y2="252.5"/>
	<line fill="none" stroke="#FFFFFF" stroke-miterlimit="10" x1="931.406" y1="237.5" x2="931.406" y2="252.5"/>
	<line fill="none" stroke="#FFFFFF" stroke-miterlimit="10" x1="920.902" y1="237.5" x2="920.902" y2="252.5"/>
	<line fill="none" stroke="#FFFFFF" stroke-miterlimit="10" x1="910.569" y1="237.5" x2="910.569" y2="252.5"/>
</g>
<g id="stair">
	<g id="stair1_2_">
		<rect x="287.22" y="336.701" fill="#595757" stroke="#231815" stroke-miterlimit="10" width="30" height="60"/>
		<line fill="none" stroke="#FFFFFF" stroke-miterlimit="10" x1="287.22" y1="366.701" x2="317.22" y2="366.701"/>
		<line fill="none" stroke="#FFFFFF" stroke-miterlimit="10" x1="287.22" y1="351.346" x2="317.22" y2="351.346"/>
		<line fill="none" stroke="#FFFFFF" stroke-miterlimit="10" x1="287.22" y1="359.012" x2="317.22" y2="359.012"/>
		<line fill="none" stroke="#FFFFFF" stroke-miterlimit="10" x1="287.22" y1="381.823" x2="317.22" y2="381.823"/>
		<line fill="none" stroke="#FFFFFF" stroke-miterlimit="10" x1="287.22" y1="374.1" x2="317.22" y2="374.1"/>
		<path fill="none" stroke="#FFFFFF" stroke-miterlimit="10" d="M317.22,388.678"/>
		<path fill="none" stroke="#FFFFFF" stroke-miterlimit="10" d="M287.22,388.678"/>
		<line fill="none" stroke="#FFFFFF" stroke-miterlimit="10" x1="302.22" y1="335.346" x2="302.22" y2="396.701"/>
	</g>
	<line fill="none" stroke="#FFFFFF" stroke-miterlimit="10" x1="287.22" y1="344.019" x2="317.22" y2="344.019"/>
</g>
<g id="stair_1_">
	<g id="stair1_3_">
		<rect x="1107.221" y="336.701" fill="#595757" stroke="#231815" stroke-miterlimit="10" width="30" height="60"/>
		<line fill="none" stroke="#FFFFFF" stroke-miterlimit="10" x1="1107.221" y1="366.701" x2="1137.221" y2="366.701"/>
		<line fill="none" stroke="#FFFFFF" stroke-miterlimit="10" x1="1107.221" y1="351.346" x2="1137.221" y2="351.346"/>
		<line fill="none" stroke="#FFFFFF" stroke-miterlimit="10" x1="1107.221" y1="359.012" x2="1137.221" y2="359.012"/>
		<line fill="none" stroke="#FFFFFF" stroke-miterlimit="10" x1="1107.221" y1="381.823" x2="1137.221" y2="381.823"/>
		<line fill="none" stroke="#FFFFFF" stroke-miterlimit="10" x1="1107.221" y1="374.1" x2="1137.221" y2="374.1"/>
		<path fill="none" stroke="#FFFFFF" stroke-miterlimit="10" d="M1137.221,388.678"/>
		<path fill="none" stroke="#FFFFFF" stroke-miterlimit="10" d="M1107.221,388.678"/>
		<line fill="none" stroke="#FFFFFF" stroke-miterlimit="10" x1="1122.221" y1="335.346" x2="1122.221" y2="396.701"/>
	</g>
	<line fill="none" stroke="#FFFFFF" stroke-miterlimit="10" x1="1107.221" y1="344.019" x2="1137.221" y2="344.019"/>
</g>
</svg>
