<?xml version="1.0" encoding="utf-8"?>
<!-- Generator: Adobe Illustrator 16.0.0, SVG Export Plug-In . SVG Version: 6.00 Build 0)  -->
<!DOCTYPE svg PUBLIC "-//W3C//DTD SVG 1.1//EN" "http://www.w3.org/Graphics/SVG/1.1/DTD/svg11.dtd">
<svg version="1.1" id="图层_1" xmlns="http://www.w3.org/2000/svg" xmlns:xlink="http://www.w3.org/1999/xlink" x="0px" y="0px"
	 width="100%" viewBox="0 0 1400 500" enable-background="new 0 0 1400 500" xml:space="preserve">
<rect id="_x32_15" x="383.406" y="323.025" fill="#F8B62D" width="80" height="60"/>
<rect id="19" x="466.835" y="323.025" fill="#F8B62D" width="80" height="60"/>
<rect id="12" x="921.291" y="142.668" fill="#F8B62D" width="80" height="60"/>
<rect id="14" x="857.967" y="323.025" fill="#F8B62D" width="80" height="60"/>
<rect id="16" x="774.967" y="323.025" fill="#F8B62D" width="80" height="60"/>
<rect id="_x32_05" x="940.659" y="323.025" fill="#13AE67" width="60" height="60"/>
<rect id="17" x="712.774" y="323.025" fill="#13AE67" width="60" height="60"/>
<rect id="10" x="1111.836" y="142.669" fill="#00A0E9" width="80" height="239.999"/>
<g id="stair">
	<g id="stair1">
		<rect x="283.55" y="323.025" fill="#595757" stroke="#231815" stroke-miterlimit="10" width="30" height="60"/>
		<line fill="none" stroke="#FFFFFF" stroke-miterlimit="10" x1="283.55" y1="353.025" x2="313.55" y2="353.025"/>
		<line fill="none" stroke="#FFFFFF" stroke-miterlimit="10" x1="283.55" y1="337.67" x2="313.55" y2="337.67"/>
		<line fill="none" stroke="#FFFFFF" stroke-miterlimit="10" x1="283.55" y1="345.336" x2="313.55" y2="345.336"/>
		<line fill="none" stroke="#FFFFFF" stroke-miterlimit="10" x1="283.55" y1="368.148" x2="313.55" y2="368.148"/>
		<line fill="none" stroke="#FFFFFF" stroke-miterlimit="10" x1="283.55" y1="360.424" x2="313.55" y2="360.424"/>
		<path fill="none" stroke="#FFFFFF" stroke-miterlimit="10" d="M313.55,375.002"/>
		<path fill="none" stroke="#FFFFFF" stroke-miterlimit="10" d="M283.55,375.002"/>
		<line fill="none" stroke="#FFFFFF" stroke-miterlimit="10" x1="298.55" y1="321.67" x2="298.55" y2="383.025"/>
	</g>
	<line fill="none" stroke="#FFFFFF" stroke-miterlimit="10" x1="283.55" y1="330.344" x2="313.55" y2="330.344"/>
</g>
<g id="stair_1_">
	<g id="stair1_1_">
		<rect x="1003.511" y="323.025" fill="#595757" stroke="#231815" stroke-miterlimit="10" width="30" height="60"/>
		<line fill="none" stroke="#FFFFFF" stroke-miterlimit="10" x1="1003.511" y1="353.025" x2="1033.511" y2="353.025"/>
		<line fill="none" stroke="#FFFFFF" stroke-miterlimit="10" x1="1003.511" y1="337.67" x2="1033.511" y2="337.67"/>
		<line fill="none" stroke="#FFFFFF" stroke-miterlimit="10" x1="1003.511" y1="345.336" x2="1033.511" y2="345.336"/>
		<line fill="none" stroke="#FFFFFF" stroke-miterlimit="10" x1="1003.511" y1="368.148" x2="1033.511" y2="368.148"/>
		<line fill="none" stroke="#FFFFFF" stroke-miterlimit="10" x1="1003.511" y1="360.424" x2="1033.511" y2="360.424"/>
		<path fill="none" stroke="#FFFFFF" stroke-miterlimit="10" d="M1033.511,375.002"/>
		<path fill="none" stroke="#FFFFFF" stroke-miterlimit="10" d="M1003.511,375.002"/>
		<line fill="none" stroke="#FFFFFF" stroke-miterlimit="10" x1="1018.511" y1="321.67" x2="1018.511" y2="383.025"/>
	</g>
	<line fill="none" stroke="#FFFFFF" stroke-miterlimit="10" x1="1003.511" y1="330.344" x2="1033.511" y2="330.344"/>
</g>
<g id="stair3">
	<rect x="833.387" y="224.456" fill="#595757" width="40" height="15"/>
	<path fill="none" stroke="#FFFFFF" stroke-miterlimit="10" d="M837.549,239.456"/>
	<path fill="none" stroke="#FFFFFF" stroke-miterlimit="10" d="M837.549,224.456"/>
	<path fill="none" stroke="#FFFFFF" stroke-miterlimit="10" d="M841.217,224.456"/>
	<path fill="none" stroke="#FFFFFF" stroke-miterlimit="10" d="M841.217,239.456"/>
	<path fill="none" stroke="#FFFFFF" stroke-miterlimit="10" d="M845.217,224.456"/>
	<path fill="none" stroke="#FFFFFF" stroke-miterlimit="10" d="M845.217,239.456"/>
	<path fill="none" stroke="#FFFFFF" stroke-miterlimit="10" d="M848.883,239.456"/>
	<path fill="none" stroke="#FFFFFF" stroke-miterlimit="10" d="M848.883,224.456"/>
	<path fill="none" stroke="#FFFFFF" stroke-miterlimit="10" d="M851.549,239.456"/>
	<path fill="none" stroke="#FFFFFF" stroke-miterlimit="10" d="M851.883,224.456"/>
	<path fill="none" stroke="#FFFFFF" stroke-miterlimit="10" d="M856.549,239.456"/>
	<path fill="none" stroke="#FFFFFF" stroke-miterlimit="10" d="M856.549,224.456"/>
	<path fill="none" stroke="#FFFFFF" stroke-miterlimit="10" d="M861.217,239.456"/>
	<path fill="none" stroke="#FFFFFF" stroke-miterlimit="10" d="M861.217,224.456"/>
	<path fill="none" stroke="#FFFFFF" stroke-miterlimit="10" d="M865.883,239.456"/>
	<path fill="none" stroke="#FFFFFF" stroke-miterlimit="10" d="M865.883,224.456"/>
	<line fill="none" stroke="#FFFFFF" stroke-miterlimit="10" x1="853.387" y1="224.456" x2="853.387" y2="239.456"/>
	<line fill="none" stroke="#FFFFFF" stroke-miterlimit="10" x1="863.217" y1="224.456" x2="863.217" y2="239.456"/>
	<line fill="none" stroke="#FFFFFF" stroke-miterlimit="10" x1="843.217" y1="224.456" x2="843.217" y2="239.456"/>
	<line fill="none" stroke="#FFFFFF" stroke-miterlimit="10" x1="868.883" y1="224.456" x2="868.883" y2="239.456"/>
	<line fill="none" stroke="#FFFFFF" stroke-miterlimit="10" x1="858.387" y1="224.456" x2="858.387" y2="239.456"/>
	<line fill="none" stroke="#FFFFFF" stroke-miterlimit="10" x1="847.883" y1="224.456" x2="847.883" y2="239.456"/>
	<line fill="none" stroke="#FFFFFF" stroke-miterlimit="10" x1="837.549" y1="224.456" x2="837.549" y2="239.456"/>
</g>
<rect x="1036.226" y="323.025" fill="#601986" width="30" height="60"/>
<rect id="11" x="1068.836" y="323.025" fill="#13AE67" width="40" height="60"/>
<rect x="218.835" y="142.669" fill="#E83828" width="40" height="60"/>
<rect x="1068.836" y="142.669" fill="#E83828" width="40" height="60"/>
<rect id="_x32_14" x="486.835" y="142.669" fill="#13AE67" width="60" height="60"/>
<rect id="18" x="551.121" y="142.669" fill="#F8B62D" width="80" height="60"/>
<rect id="_x32_10" x="635.148" y="142.669" fill="#F8B62D" width="80" height="60"/>
<rect id="13" x="836.6" y="142.669" fill="#F8B62D" width="80" height="60"/>
<rect id="20" x="348.835" y="142.669" fill="#F8B62D" width="80" height="60"/>
<rect id="_x32_02" x="1004.857" y="142.669" fill="#13AE67" width="60" height="60"/>
<g id="stair2">
	<rect x="782.722" y="142.669" fill="#595757" width="49.999" height="60"/>
	<line fill="none" x1="782.722" y1="172.669" x2="832.721" y2="172.669"/>
	<line fill="none" stroke="#FFFFFF" stroke-miterlimit="10" x1="782.722" y1="172.669" x2="832.721" y2="172.669"/>
	<line fill="none" stroke="#FFFFFF" stroke-miterlimit="10" x1="782.722" y1="187.076" x2="832.721" y2="187.409"/>
	<line fill="none" stroke="#FFFFFF" stroke-miterlimit="10" x1="782.722" y1="165.409" x2="832.721" y2="165.076"/>
	<line fill="none" stroke="#FFFFFF" stroke-miterlimit="10" x1="782.722" y1="180.254" x2="832.721" y2="180.254"/>
	<line fill="none" stroke="#FFFFFF" stroke-miterlimit="10" x1="782.722" y1="195.076" x2="832.721" y2="195.409"/>
	<line fill="none" stroke="#FFFFFF" stroke-miterlimit="10" x1="807.721" y1="142.669" x2="807.721" y2="202.669"/>
</g>
<g id="stair3_1_">
	<rect x="891" y="224.456" fill="#595757" width="40" height="15"/>
	<path fill="none" stroke="#FFFFFF" stroke-miterlimit="10" d="M895.162,239.456"/>
	<path fill="none" stroke="#FFFFFF" stroke-miterlimit="10" d="M895.162,224.456"/>
	<path fill="none" stroke="#FFFFFF" stroke-miterlimit="10" d="M898.829,224.456"/>
	<path fill="none" stroke="#FFFFFF" stroke-miterlimit="10" d="M898.829,239.456"/>
	<path fill="none" stroke="#FFFFFF" stroke-miterlimit="10" d="M902.829,224.456"/>
	<path fill="none" stroke="#FFFFFF" stroke-miterlimit="10" d="M902.829,239.456"/>
	<path fill="none" stroke="#FFFFFF" stroke-miterlimit="10" d="M906.496,239.456"/>
	<path fill="none" stroke="#FFFFFF" stroke-miterlimit="10" d="M906.496,224.456"/>
	<path fill="none" stroke="#FFFFFF" stroke-miterlimit="10" d="M909.162,239.456"/>
	<path fill="none" stroke="#FFFFFF" stroke-miterlimit="10" d="M909.496,224.456"/>
	<path fill="none" stroke="#FFFFFF" stroke-miterlimit="10" d="M914.162,239.456"/>
	<path fill="none" stroke="#FFFFFF" stroke-miterlimit="10" d="M914.162,224.456"/>
	<path fill="none" stroke="#FFFFFF" stroke-miterlimit="10" d="M918.829,239.456"/>
	<path fill="none" stroke="#FFFFFF" stroke-miterlimit="10" d="M918.829,224.456"/>
	<path fill="none" stroke="#FFFFFF" stroke-miterlimit="10" d="M923.496,239.456"/>
	<path fill="none" stroke="#FFFFFF" stroke-miterlimit="10" d="M923.496,224.456"/>
	<line fill="none" stroke="#FFFFFF" stroke-miterlimit="10" x1="911" y1="224.456" x2="911" y2="239.456"/>
	<line fill="none" stroke="#FFFFFF" stroke-miterlimit="10" x1="920.829" y1="224.456" x2="920.829" y2="239.456"/>
	<line fill="none" stroke="#FFFFFF" stroke-miterlimit="10" x1="900.829" y1="224.456" x2="900.829" y2="239.456"/>
	<line fill="none" stroke="#FFFFFF" stroke-miterlimit="10" x1="926.496" y1="224.456" x2="926.496" y2="239.456"/>
	<line fill="none" stroke="#FFFFFF" stroke-miterlimit="10" x1="916" y1="224.456" x2="916" y2="239.456"/>
	<line fill="none" stroke="#FFFFFF" stroke-miterlimit="10" x1="905.496" y1="224.456" x2="905.496" y2="239.456"/>
	<line fill="none" stroke="#FFFFFF" stroke-miterlimit="10" x1="895.162" y1="224.456" x2="895.162" y2="239.456"/>
</g>
<rect id="15" x="718.406" y="142.669" fill="#13AE67" width="60" height="60"/>
<g id="stair2_1_">
	<rect x="432.836" y="142.669" fill="#595757" width="50" height="60"/>
	<line fill="none" x1="432.836" y1="172.669" x2="482.835" y2="172.669"/>
	<line fill="none" stroke="#FFFFFF" stroke-miterlimit="10" x1="432.836" y1="172.669" x2="482.835" y2="172.669"/>
	<line fill="none" stroke="#FFFFFF" stroke-miterlimit="10" x1="432.836" y1="187.076" x2="482.835" y2="187.409"/>
	<line fill="none" stroke="#FFFFFF" stroke-miterlimit="10" x1="432.836" y1="165.409" x2="482.835" y2="165.076"/>
	<line fill="none" stroke="#FFFFFF" stroke-miterlimit="10" x1="432.836" y1="180.254" x2="482.835" y2="180.254"/>
	<line fill="none" stroke="#FFFFFF" stroke-miterlimit="10" x1="432.836" y1="195.076" x2="482.835" y2="195.409"/>
	<line fill="none" stroke="#FFFFFF" stroke-miterlimit="10" x1="457.835" y1="142.669" x2="457.835" y2="202.669"/>
</g>
<rect id="_x32_18" x="264.835" y="142.669" fill="#F8B62D" width="80" height="60"/>
<rect id="_x32_17" x="318.835" y="323.025" fill="#13AE67" width="60" height="60"/>
<rect id="_x32_19" x="218.835" y="323.025" fill="#13AE67" width="60" height="60"/>
<g id="stair3_2_">
	<rect x="419.667" y="282.268" fill="#595757" width="40" height="15"/>
	<path fill="none" stroke="#FFFFFF" stroke-miterlimit="10" d="M423.83,297.268"/>
	<path fill="none" stroke="#FFFFFF" stroke-miterlimit="10" d="M423.83,282.268"/>
	<path fill="none" stroke="#FFFFFF" stroke-miterlimit="10" d="M427.497,282.268"/>
	<path fill="none" stroke="#FFFFFF" stroke-miterlimit="10" d="M427.497,297.268"/>
	<path fill="none" stroke="#FFFFFF" stroke-miterlimit="10" d="M431.497,282.268"/>
	<path fill="none" stroke="#FFFFFF" stroke-miterlimit="10" d="M431.497,297.268"/>
	<path fill="none" stroke="#FFFFFF" stroke-miterlimit="10" d="M435.163,297.268"/>
	<path fill="none" stroke="#FFFFFF" stroke-miterlimit="10" d="M435.163,282.268"/>
	<path fill="none" stroke="#FFFFFF" stroke-miterlimit="10" d="M437.83,297.268"/>
	<path fill="none" stroke="#FFFFFF" stroke-miterlimit="10" d="M438.163,282.268"/>
	<path fill="none" stroke="#FFFFFF" stroke-miterlimit="10" d="M442.83,297.268"/>
	<path fill="none" stroke="#FFFFFF" stroke-miterlimit="10" d="M442.83,282.268"/>
	<path fill="none" stroke="#FFFFFF" stroke-miterlimit="10" d="M447.497,297.268"/>
	<path fill="none" stroke="#FFFFFF" stroke-miterlimit="10" d="M447.497,282.268"/>
	<path fill="none" stroke="#FFFFFF" stroke-miterlimit="10" d="M452.163,297.268"/>
	<path fill="none" stroke="#FFFFFF" stroke-miterlimit="10" d="M452.163,282.268"/>
	<line fill="none" stroke="#FFFFFF" stroke-miterlimit="10" x1="439.667" y1="282.268" x2="439.667" y2="297.268"/>
	<line fill="none" stroke="#FFFFFF" stroke-miterlimit="10" x1="449.497" y1="282.268" x2="449.497" y2="297.268"/>
	<line fill="none" stroke="#FFFFFF" stroke-miterlimit="10" x1="429.497" y1="282.268" x2="429.497" y2="297.268"/>
	<line fill="none" stroke="#FFFFFF" stroke-miterlimit="10" x1="455.163" y1="282.268" x2="455.163" y2="297.268"/>
	<line fill="none" stroke="#FFFFFF" stroke-miterlimit="10" x1="444.667" y1="282.268" x2="444.667" y2="297.268"/>
	<line fill="none" stroke="#FFFFFF" stroke-miterlimit="10" x1="434.163" y1="282.268" x2="434.163" y2="297.268"/>
	<line fill="none" stroke="#FFFFFF" stroke-miterlimit="10" x1="423.83" y1="282.268" x2="423.83" y2="297.268"/>
</g>
<g id="stair3_3_">
	<rect x="361.837" y="282.268" fill="#595757" width="40" height="15"/>
	<path fill="none" stroke="#FFFFFF" stroke-miterlimit="10" d="M366,297.268"/>
	<path fill="none" stroke="#FFFFFF" stroke-miterlimit="10" d="M366,282.268"/>
	<path fill="none" stroke="#FFFFFF" stroke-miterlimit="10" d="M369.667,282.268"/>
	<path fill="none" stroke="#FFFFFF" stroke-miterlimit="10" d="M369.667,297.268"/>
	<path fill="none" stroke="#FFFFFF" stroke-miterlimit="10" d="M373.667,282.268"/>
	<path fill="none" stroke="#FFFFFF" stroke-miterlimit="10" d="M373.667,297.268"/>
	<path fill="none" stroke="#FFFFFF" stroke-miterlimit="10" d="M377.333,297.268"/>
	<path fill="none" stroke="#FFFFFF" stroke-miterlimit="10" d="M377.333,282.268"/>
	<path fill="none" stroke="#FFFFFF" stroke-miterlimit="10" d="M380,297.268"/>
	<path fill="none" stroke="#FFFFFF" stroke-miterlimit="10" d="M380.333,282.268"/>
	<path fill="none" stroke="#FFFFFF" stroke-miterlimit="10" d="M385,297.268"/>
	<path fill="none" stroke="#FFFFFF" stroke-miterlimit="10" d="M385,282.268"/>
	<path fill="none" stroke="#FFFFFF" stroke-miterlimit="10" d="M389.667,297.268"/>
	<path fill="none" stroke="#FFFFFF" stroke-miterlimit="10" d="M389.667,282.268"/>
	<path fill="none" stroke="#FFFFFF" stroke-miterlimit="10" d="M394.333,297.268"/>
	<path fill="none" stroke="#FFFFFF" stroke-miterlimit="10" d="M394.333,282.268"/>
	<line fill="none" stroke="#FFFFFF" stroke-miterlimit="10" x1="381.837" y1="282.268" x2="381.837" y2="297.268"/>
	<line fill="none" stroke="#FFFFFF" stroke-miterlimit="10" x1="391.667" y1="282.268" x2="391.667" y2="297.268"/>
	<line fill="none" stroke="#FFFFFF" stroke-miterlimit="10" x1="371.667" y1="282.268" x2="371.667" y2="297.268"/>
	<line fill="none" stroke="#FFFFFF" stroke-miterlimit="10" x1="397.333" y1="282.268" x2="397.333" y2="297.268"/>
	<line fill="none" stroke="#FFFFFF" stroke-miterlimit="10" x1="386.837" y1="282.268" x2="386.837" y2="297.268"/>
	<line fill="none" stroke="#FFFFFF" stroke-miterlimit="10" x1="376.333" y1="282.268" x2="376.333" y2="297.268"/>
	<line fill="none" stroke="#FFFFFF" stroke-miterlimit="10" x1="366" y1="282.268" x2="366" y2="297.268"/>
</g>
<rect x="932.159" y="224.456" fill="#595757" width="15" height="15"/>
<rect x="874.6" y="224.456" fill="#595757" width="15" height="15"/>
<rect x="345.335" y="282.268" fill="#595757" width="15" height="15"/>
<rect x="403.429" y="282.268" fill="#595757" width="15" height="15"/>
</svg>
