<?xml version="1.0" encoding="utf-8"?>
<!-- Generator: Adobe Illustrator 16.0.0, SVG Export Plug-In . SVG Version: 6.00 Build 0)  -->
<!DOCTYPE svg PUBLIC "-//W3C//DTD SVG 1.1//EN" "http://www.w3.org/Graphics/SVG/1.1/DTD/svg11.dtd">
<svg version="1.1" id="图层_1" xmlns="http://www.w3.org/2000/svg" xmlns:xlink="http://www.w3.org/1999/xlink" x="0px" y="0px"
	 width="100%" viewBox="0 0 1400 500" enable-background="new 0 0 1400 500" xml:space="preserve">
<rect id="21" x="1221.405" y="145.024" fill="#00A0E9" width="80" height="240.001"/>
<rect id="22" x="1188.406" y="326.96" fill="#13AE67" width="30" height="60"/>
<rect x="1155.076" y="326.959" fill="#601986" width="30" height="60"/>
<g id="stair">
	<g id="stair1">
		<rect x="1121.143" y="326.959" fill="#595757" stroke="#231815" stroke-miterlimit="10" width="30" height="60"/>
		<line fill="none" stroke="#FFFFFF" stroke-miterlimit="10" x1="1121.143" y1="356.959" x2="1151.143" y2="356.959"/>
		<line fill="none" stroke="#FFFFFF" stroke-miterlimit="10" x1="1121.143" y1="341.604" x2="1151.143" y2="341.604"/>
		<line fill="none" stroke="#FFFFFF" stroke-miterlimit="10" x1="1121.143" y1="349.27" x2="1151.143" y2="349.27"/>
		<line fill="none" stroke="#FFFFFF" stroke-miterlimit="10" x1="1121.143" y1="372.082" x2="1151.143" y2="372.082"/>
		<line fill="none" stroke="#FFFFFF" stroke-miterlimit="10" x1="1121.143" y1="364.359" x2="1151.143" y2="364.359"/>
		<path fill="none" stroke="#FFFFFF" stroke-miterlimit="10" d="M1151.143,378.938"/>
		<path fill="none" stroke="#FFFFFF" stroke-miterlimit="10" d="M1121.143,378.938"/>
		<line fill="none" stroke="#FFFFFF" stroke-miterlimit="10" x1="1136.143" y1="325.604" x2="1136.143" y2="386.959"/>
	</g>
	<line fill="none" stroke="#FFFFFF" stroke-miterlimit="10" x1="1121.143" y1="334.277" x2="1151.143" y2="334.277"/>
</g>
<rect id="23" x="1057.12" y="326.959" fill="#13AE67" width="60" height="60"/>
<rect id="_x33_07" x="974.12" y="326.96" fill="#F8B62D" width="80" height="60"/>
<rect id="_x33_09" x="889.978" y="326.96" fill="#F8B62D" width="80" height="60"/>
<rect id="24" x="741.978" y="326.96" fill="#F8B62D" width="80" height="60"/>
<rect id="_x33_11" x="825.979" y="326.959" fill="#13AE67" width="60" height="60"/>
<rect id="25" x="659.001" y="326.96" fill="#F8B62D" width="79.999" height="60"/>
<rect id="_x33_17" x="575.121" y="326.961" fill="#F8B62D" width="80" height="60"/>
<rect id="27" x="491.122" y="326.96" fill="#F8B62D" width="80" height="60"/>
<rect id="_x33_21" x="407.407" y="326.96" fill="#F8B62D" width="80" height="60"/>
<g id="stair_1_">
	<g id="stair1_1_">
		<rect x="373.22" y="326.959" fill="#595757" stroke="#231815" stroke-miterlimit="10" width="30" height="60"/>
		<line fill="none" stroke="#FFFFFF" stroke-miterlimit="10" x1="373.22" y1="356.959" x2="403.22" y2="356.959"/>
		<line fill="none" stroke="#FFFFFF" stroke-miterlimit="10" x1="373.22" y1="341.604" x2="403.22" y2="341.604"/>
		<line fill="none" stroke="#FFFFFF" stroke-miterlimit="10" x1="373.22" y1="349.27" x2="403.22" y2="349.27"/>
		<line fill="none" stroke="#FFFFFF" stroke-miterlimit="10" x1="373.22" y1="372.082" x2="403.22" y2="372.082"/>
		<line fill="none" stroke="#FFFFFF" stroke-miterlimit="10" x1="373.22" y1="364.359" x2="403.22" y2="364.359"/>
		<path fill="none" stroke="#FFFFFF" stroke-miterlimit="10" d="M403.22,378.938"/>
		<path fill="none" stroke="#FFFFFF" stroke-miterlimit="10" d="M373.22,378.938"/>
		<line fill="none" stroke="#FFFFFF" stroke-miterlimit="10" x1="388.22" y1="325.604" x2="388.22" y2="386.959"/>
	</g>
	<line fill="none" stroke="#FFFFFF" stroke-miterlimit="10" x1="373.22" y1="334.277" x2="403.22" y2="334.277"/>
</g>
<rect id="_x33_23" x="309.22" y="326.959" fill="#13AE67" width="60" height="60"/>
<rect id="28" x="226.22" y="145.024" fill="#00A0E9" width="80" height="240"/>
<rect x="311.22" y="145.024" fill="#E83828" width="40" height="60"/>
<rect id="26" x="355.978" y="145.024" fill="#F8B62D" width="80" height="60"/>
<rect id="_x33_16" x="441.407" y="145.024" fill="#F8B62D" width="80" height="60"/>
<g id="stair2">
	<rect x="526.122" y="145.024" fill="#595757" width="50" height="60"/>
	<line fill="none" x1="526.122" y1="175.024" x2="576.121" y2="175.024"/>
	<line fill="none" stroke="#FFFFFF" stroke-miterlimit="10" x1="526.122" y1="175.024" x2="576.121" y2="175.024"/>
	<line fill="none" stroke="#FFFFFF" stroke-miterlimit="10" x1="526.122" y1="189.431" x2="576.121" y2="189.764"/>
	<line fill="none" stroke="#FFFFFF" stroke-miterlimit="10" x1="526.122" y1="167.764" x2="576.121" y2="167.431"/>
	<line fill="none" stroke="#FFFFFF" stroke-miterlimit="10" x1="526.122" y1="182.609" x2="576.121" y2="182.609"/>
	<line fill="none" stroke="#FFFFFF" stroke-miterlimit="10" x1="526.122" y1="197.431" x2="576.121" y2="197.764"/>
	<line fill="none" stroke="#FFFFFF" stroke-miterlimit="10" x1="551.121" y1="145.024" x2="551.121" y2="205.024"/>
</g>
<rect id="_x33_14" x="581.407" y="145.024" fill="#13AE67" width="60" height="60"/>
<rect id="_x33_12" x="648.835" y="145.024" fill="#F8B62D" width="80" height="60"/>
<rect id="_x33_10" x="736.12" y="145.024" fill="#F8B62D" width="80" height="60"/>
<rect id="_x33_08" x="821.406" y="145.024" fill="#13AE67" width="60" height="60"/>
<g id="stair2_1_">
	<rect x="885.979" y="145.024" fill="#595757" width="49.999" height="60"/>
	<line fill="none" x1="885.979" y1="175.024" x2="935.979" y2="175.024"/>
	<line fill="none" stroke="#FFFFFF" stroke-miterlimit="10" x1="885.979" y1="175.024" x2="935.979" y2="175.024"/>
	<line fill="none" stroke="#FFFFFF" stroke-miterlimit="10" x1="885.979" y1="189.431" x2="935.979" y2="189.764"/>
	<line fill="none" stroke="#FFFFFF" stroke-miterlimit="10" x1="885.979" y1="167.764" x2="935.979" y2="167.431"/>
	<line fill="none" stroke="#FFFFFF" stroke-miterlimit="10" x1="885.979" y1="182.609" x2="935.979" y2="182.609"/>
	<line fill="none" stroke="#FFFFFF" stroke-miterlimit="10" x1="885.979" y1="197.431" x2="935.979" y2="197.764"/>
	<line fill="none" stroke="#FFFFFF" stroke-miterlimit="10" x1="910.979" y1="145.024" x2="910.979" y2="205.024"/>
</g>
<rect id="_x33_06" x="942.406" y="145.024" fill="#F8B62D" width="80" height="60"/>
<rect id="_x33_04" x="1027.12" y="145.024" fill="#F8B62D" width="80" height="60"/>
<rect id="_x33_02" x="1111.143" y="145.024" fill="#13AE67" width="60" height="60"/>
<rect x="1175.838" y="145.024" fill="#E83828" width="40" height="60"/>
</svg>
