<?xml version="1.0" encoding="utf-8"?>
<!-- Generator: Adobe Illustrator 16.0.0, SVG Export Plug-In . SVG Version: 6.00 Build 0)  -->
<!DOCTYPE svg PUBLIC "-//W3C//DTD SVG 1.1//EN" "http://www.w3.org/Graphics/SVG/1.1/DTD/svg11.dtd">
<svg version="1.1" id="图层_1" xmlns="http://www.w3.org/2000/svg" xmlns:xlink="http://www.w3.org/1999/xlink" x="0px" y="0px"
	 width="100%" viewBox="0 0 1400 500" enable-background="new 0 0 1400 500" xml:space="preserve">
<rect id="_x34_01" x="1233.408" y="122.024" fill="#00A0E9" width="80" height="240"/>
<rect id="30" x="1194.247" y="301.922" fill="#13AE67" width="35.692" height="60"/>
<rect x="1161.753" y="301.921" fill="#601986" width="30" height="60"/>
<g id="stair">
	<g id="stair1">
		<rect x="1128.753" y="301.921" fill="#595757" stroke="#231815" stroke-miterlimit="10" width="30" height="60"/>
		<line fill="none" stroke="#FFFFFF" stroke-miterlimit="10" x1="1128.753" y1="331.921" x2="1158.753" y2="331.921"/>
		<line fill="none" stroke="#FFFFFF" stroke-miterlimit="10" x1="1128.753" y1="316.565" x2="1158.753" y2="316.565"/>
		<line fill="none" stroke="#FFFFFF" stroke-miterlimit="10" x1="1128.753" y1="324.231" x2="1158.753" y2="324.231"/>
		<line fill="none" stroke="#FFFFFF" stroke-miterlimit="10" x1="1128.753" y1="347.044" x2="1158.753" y2="347.044"/>
		<line fill="none" stroke="#FFFFFF" stroke-miterlimit="10" x1="1128.753" y1="339.321" x2="1158.753" y2="339.321"/>
		<path fill="none" stroke="#FFFFFF" stroke-miterlimit="10" d="M1158.753,353.899"/>
		<path fill="none" stroke="#FFFFFF" stroke-miterlimit="10" d="M1128.753,353.899"/>
		<line fill="none" stroke="#FFFFFF" stroke-miterlimit="10" x1="1143.753" y1="300.565" x2="1143.753" y2="361.921"/>
	</g>
	<line fill="none" stroke="#FFFFFF" stroke-miterlimit="10" x1="1128.753" y1="309.239" x2="1158.753" y2="309.239"/>
</g>
<rect id="29" x="1130.72" y="122.024" fill="#C9A063" width="55" height="60"/>
<rect id="43" x="479.943" y="301.922" fill="#C9A063" width="55" height="60"/>
<rect id="44" x="418.514" y="301.922" fill="#C9A063" width="55" height="60"/>
<rect id="42" x="539.8" y="301.922" fill="#C9A063" width="55" height="60"/>
<rect id="41" x="599.89" y="301.922" fill="#C9A063" width="55" height="60"/>
<rect id="39" x="659.533" y="301.922" fill="#C9A063" width="55" height="60"/>
<rect id="38" x="718.533" y="301.922" fill="#C9A063" width="55" height="60"/>
<rect id="37" x="776.8" y="301.922" fill="#C9A063" width="55" height="60"/>
<rect id="36" x="835.229" y="301.922" fill="#C9A063" width="55" height="60"/>
<rect id="35" x="894.658" y="301.922" fill="#C9A063" width="55" height="60"/>
<rect id="_x34_09" x="953.086" y="301.922" fill="#C9A063" width="55" height="60"/>
<rect id="34" x="1010.516" y="301.922" fill="#C9A063" width="55" height="60"/>
<rect id="32" x="1068.531" y="301.922" fill="#C9A063" width="55" height="60"/>
<rect id="_x34_10" x="840.125" y="122.024" fill="#C9A063" width="55" height="60"/>
<rect id="_x34_12" x="781.125" y="122.024" fill="#C9A063" width="55" height="60"/>
<rect id="_x34_14" x="721.267" y="122.024" fill="#C9A063" width="55" height="60"/>
<rect id="_x34_16" x="662.266" y="122.024" fill="#C9A063" width="55" height="60"/>
<rect id="_x34_18" x="603" y="122.024" fill="#C9A063" width="55" height="60"/>
<rect id="_x34_08" x="952.141" y="122.024" fill="#C9A063" width="55" height="60"/>
<rect id="33" x="1011.982" y="122.024" fill="#C9A063" width="55" height="60"/>
<rect id="31" x="1071.998" y="122.024" fill="#C9A063" width="55" height="60"/>
<g id="stair_1_">
	<g id="stair1_1_">
		<rect x="383.94" y="301.921" fill="#595757" stroke="#231815" stroke-miterlimit="10" width="30" height="60"/>
		<line fill="none" stroke="#FFFFFF" stroke-miterlimit="10" x1="383.94" y1="331.921" x2="413.94" y2="331.921"/>
		<line fill="none" stroke="#FFFFFF" stroke-miterlimit="10" x1="383.94" y1="316.565" x2="413.94" y2="316.565"/>
		<line fill="none" stroke="#FFFFFF" stroke-miterlimit="10" x1="383.94" y1="324.231" x2="413.94" y2="324.231"/>
		<line fill="none" stroke="#FFFFFF" stroke-miterlimit="10" x1="383.94" y1="347.044" x2="413.94" y2="347.044"/>
		<line fill="none" stroke="#FFFFFF" stroke-miterlimit="10" x1="383.94" y1="339.321" x2="413.94" y2="339.321"/>
		<path fill="none" stroke="#FFFFFF" stroke-miterlimit="10" d="M413.94,353.899"/>
		<path fill="none" stroke="#FFFFFF" stroke-miterlimit="10" d="M383.94,353.899"/>
		<line fill="none" stroke="#FFFFFF" stroke-miterlimit="10" x1="398.94" y1="300.565" x2="398.94" y2="361.921"/>
	</g>
	<line fill="none" stroke="#FFFFFF" stroke-miterlimit="10" x1="383.94" y1="309.239" x2="413.94" y2="309.239"/>
</g>
<rect id="45" x="299.49" y="301.922" fill="#F8B62D" width="80" height="60"/>
<rect id="_x34_26" x="148.528" y="122.024" fill="#F8B62D" width="85" height="60"/>
<rect id="46" x="234.061" y="301.921" fill="#13AE67" width="60" height="60"/>
<rect id="_x34_33" x="149.061" y="301.922" fill="#F8B62D" width="80" height="60"/>
<rect id="_x34_28" x="287.55" y="206.744" fill="#B5B5B6" width="50" height="70.001"/>
<rect id="_x34_30" x="148.528" y="206.744" fill="#B5B5B6" width="136.022" height="70"/>
<rect x="1189.837" y="122.024" fill="#E83828" width="40" height="60"/>
<g id="stair2">
	<rect x="897.625" y="122.024" fill="#595757" width="49.999" height="60"/>
	<line fill="none" x1="897.625" y1="152.024" x2="947.624" y2="152.024"/>
	<line fill="none" stroke="#FFFFFF" stroke-miterlimit="10" x1="897.625" y1="152.024" x2="947.624" y2="152.024"/>
	<line fill="none" stroke="#FFFFFF" stroke-miterlimit="10" x1="897.625" y1="166.431" x2="947.624" y2="166.764"/>
	<line fill="none" stroke="#FFFFFF" stroke-miterlimit="10" x1="897.625" y1="144.764" x2="947.624" y2="144.431"/>
	<line fill="none" stroke="#FFFFFF" stroke-miterlimit="10" x1="897.625" y1="159.609" x2="947.624" y2="159.609"/>
	<line fill="none" stroke="#FFFFFF" stroke-miterlimit="10" x1="897.625" y1="174.431" x2="947.624" y2="174.764"/>
	<line fill="none" stroke="#FFFFFF" stroke-miterlimit="10" x1="922.624" y1="122.024" x2="922.624" y2="182.024"/>
</g>
<g id="stair2_1_">
	<rect x="549.505" y="122.024" fill="#595757" width="50" height="60"/>
	<line fill="none" x1="549.505" y1="152.024" x2="599.505" y2="152.024"/>
	<line fill="none" stroke="#FFFFFF" stroke-miterlimit="10" x1="549.505" y1="152.024" x2="599.505" y2="152.024"/>
	<line fill="none" stroke="#FFFFFF" stroke-miterlimit="10" x1="549.505" y1="166.431" x2="599.505" y2="166.764"/>
	<line fill="none" stroke="#FFFFFF" stroke-miterlimit="10" x1="549.505" y1="144.764" x2="599.505" y2="144.431"/>
	<line fill="none" stroke="#FFFFFF" stroke-miterlimit="10" x1="549.505" y1="159.609" x2="599.505" y2="159.609"/>
	<line fill="none" stroke="#FFFFFF" stroke-miterlimit="10" x1="549.505" y1="174.431" x2="599.505" y2="174.764"/>
	<line fill="none" stroke="#FFFFFF" stroke-miterlimit="10" x1="574.505" y1="122.024" x2="574.505" y2="182.024"/>
</g>
<rect id="40" x="489.409" y="122.024" fill="#C9A063" width="55" height="60"/>
<rect id="_x34_22" x="429.786" y="122.024" fill="#C9A063" width="55" height="60"/>
<rect x="384.835" y="122.024" fill="#E83828" width="40" height="60"/>
<rect id="_x34_24" x="236.528" y="122.024" fill="#F8B62D" width="145.429" height="60"/>
</svg>
