<?xml version="1.0" encoding="utf-8"?>
<!-- Generator: Adobe Illustrator 16.0.0, SVG Export Plug-In . SVG Version: 6.00 Build 0)  -->
<!DOCTYPE svg PUBLIC "-//W3C//DTD SVG 1.1//EN" "http://www.w3.org/Graphics/SVG/1.1/DTD/svg11.dtd">
<svg version="1.1" id="图层_1" xmlns="http://www.w3.org/2000/svg" xmlns:xlink="http://www.w3.org/1999/xlink" x="0px" y="0px"
	 width="100%" viewBox="0 0 1400 500" enable-background="new 0 0 1400 500" xml:space="preserve">
<rect id="_x35_01" x="1204.978" y="134.024" fill="#00A0E9" width="80" height="240"/>
<rect id="_x35_03" x="1121.695" y="314.024" fill="#F8B62D" width="80" height="60"/>
<g id="stair">
	<g id="stair1">
		<rect x="1086.793" y="314.023" fill="#595757" stroke="#231815" stroke-miterlimit="10" width="30" height="60"/>
		<line fill="none" stroke="#FFFFFF" stroke-miterlimit="10" x1="1086.793" y1="344.023" x2="1116.793" y2="344.023"/>
		<line fill="none" stroke="#FFFFFF" stroke-miterlimit="10" x1="1086.793" y1="328.668" x2="1116.793" y2="328.668"/>
		<line fill="none" stroke="#FFFFFF" stroke-miterlimit="10" x1="1086.793" y1="336.334" x2="1116.793" y2="336.334"/>
		<line fill="none" stroke="#FFFFFF" stroke-miterlimit="10" x1="1086.793" y1="359.146" x2="1116.793" y2="359.146"/>
		<line fill="none" stroke="#FFFFFF" stroke-miterlimit="10" x1="1086.793" y1="351.424" x2="1116.793" y2="351.424"/>
		<path fill="none" stroke="#FFFFFF" stroke-miterlimit="10" d="M1116.793,366.002"/>
		<path fill="none" stroke="#FFFFFF" stroke-miterlimit="10" d="M1086.793,366.002"/>
		<line fill="none" stroke="#FFFFFF" stroke-miterlimit="10" x1="1101.793" y1="312.668" x2="1101.793" y2="374.023"/>
	</g>
	<line fill="none" stroke="#FFFFFF" stroke-miterlimit="10" x1="1086.793" y1="321.342" x2="1116.793" y2="321.342"/>
</g>
<rect id="47" x="971.126" y="314.024" fill="#C9A063" width="110" height="60"/>
<rect id="49" x="857.411" y="314.024" fill="#C9A063" width="110" height="60"/>
<rect id="_x35_08" x="699" y="134.024" fill="#C9A063" width="110" height="60"/>
<rect id="48" x="797.981" y="314.024" fill="#C9A063" width="55" height="60"/>
<rect id="_x35_11" x="738.697" y="314.024" fill="#C9A063" width="55" height="60"/>
<rect id="_x35_13" x="624.697" y="314.024" fill="#C9A063" width="110" height="60"/>
<rect id="_x35_15" x="510.411" y="314.024" fill="#C9A063" width="110" height="60"/>
<rect id="_x35_17" x="396.982" y="314.024" fill="#C9A063" width="110" height="60"/>
<g id="stair_1_">
	<g id="stair1_1_">
		<rect x="361.936" y="314.023" fill="#595757" stroke="#231815" stroke-miterlimit="10" width="30" height="60"/>
		<line fill="none" stroke="#FFFFFF" stroke-miterlimit="10" x1="361.936" y1="344.023" x2="391.936" y2="344.023"/>
		<line fill="none" stroke="#FFFFFF" stroke-miterlimit="10" x1="361.936" y1="328.668" x2="391.936" y2="328.668"/>
		<line fill="none" stroke="#FFFFFF" stroke-miterlimit="10" x1="361.936" y1="336.334" x2="391.936" y2="336.334"/>
		<line fill="none" stroke="#FFFFFF" stroke-miterlimit="10" x1="361.936" y1="359.146" x2="391.936" y2="359.146"/>
		<line fill="none" stroke="#FFFFFF" stroke-miterlimit="10" x1="361.936" y1="351.424" x2="391.936" y2="351.424"/>
		<path fill="none" stroke="#FFFFFF" stroke-miterlimit="10" d="M391.936,366.002"/>
		<path fill="none" stroke="#FFFFFF" stroke-miterlimit="10" d="M361.936,366.002"/>
		<line fill="none" stroke="#FFFFFF" stroke-miterlimit="10" x1="376.936" y1="312.668" x2="376.936" y2="374.023"/>
	</g>
	<line fill="none" stroke="#FFFFFF" stroke-miterlimit="10" x1="361.936" y1="321.342" x2="391.936" y2="321.342"/>
</g>
<rect id="_x35_19" x="301.697" y="314.024" fill="#C9A063" width="55" height="60"/>
<rect id="_x35_21" x="217.958" y="314.024" fill="#F8B62D" width="80" height="60"/>
<rect id="_x35_23" x="152.121" y="314.023" fill="#13AE67" width="60" height="60"/>
<rect id="_x35_22" x="152.121" y="220" fill="#B5B5B6" width="143.978" height="70"/>
<rect id="_x35_20" x="300.337" y="220" fill="#B5B5B6" width="50" height="70"/>
<rect x="302.337" y="134.024" fill="#E83828" width="40" height="60"/>
<rect x="1160.837" y="134.024" fill="#E83828" width="40" height="60"/>
<rect id="_x35_02" x="1044.934" y="134.024" fill="#C9A063" width="110" height="60"/>
<rect id="_x35_04" x="930.838" y="134.024" fill="#C9A063" width="110" height="60"/>
<g id="stair2">
	<rect x="876.838" y="134.024" fill="#595757" width="49.999" height="60"/>
	<line fill="none" x1="876.838" y1="164.024" x2="926.837" y2="164.024"/>
	<line fill="none" stroke="#FFFFFF" stroke-miterlimit="10" x1="876.838" y1="164.024" x2="926.837" y2="164.024"/>
	<line fill="none" stroke="#FFFFFF" stroke-miterlimit="10" x1="876.838" y1="178.431" x2="926.837" y2="178.764"/>
	<line fill="none" stroke="#FFFFFF" stroke-miterlimit="10" x1="876.838" y1="156.764" x2="926.837" y2="156.431"/>
	<line fill="none" stroke="#FFFFFF" stroke-miterlimit="10" x1="876.838" y1="171.609" x2="926.837" y2="171.609"/>
	<line fill="none" stroke="#FFFFFF" stroke-miterlimit="10" x1="876.838" y1="186.431" x2="926.837" y2="186.764"/>
	<line fill="none" stroke="#FFFFFF" stroke-miterlimit="10" x1="901.837" y1="134.024" x2="901.837" y2="194.024"/>
</g>
<rect id="_x35_06" x="812.406" y="134.024" fill="#13AE67" width="60" height="60"/>
<rect id="_x35_10" x="584.837" y="134.024" fill="#C9A063" width="110" height="60"/>
<g id="stair2_1_">
	<rect x="530.552" y="134.024" fill="#595757" width="50" height="60"/>
	<line fill="none" x1="530.552" y1="164.024" x2="580.552" y2="164.024"/>
	<line fill="none" stroke="#FFFFFF" stroke-miterlimit="10" x1="530.552" y1="164.024" x2="580.552" y2="164.024"/>
	<line fill="none" stroke="#FFFFFF" stroke-miterlimit="10" x1="530.552" y1="178.431" x2="580.552" y2="178.764"/>
	<line fill="none" stroke="#FFFFFF" stroke-miterlimit="10" x1="530.552" y1="156.764" x2="580.552" y2="156.431"/>
	<line fill="none" stroke="#FFFFFF" stroke-miterlimit="10" x1="530.552" y1="171.609" x2="580.552" y2="171.609"/>
	<line fill="none" stroke="#FFFFFF" stroke-miterlimit="10" x1="530.552" y1="186.431" x2="580.552" y2="186.764"/>
	<line fill="none" stroke="#FFFFFF" stroke-miterlimit="10" x1="555.552" y1="134.024" x2="555.552" y2="194.024"/>
</g>
<rect id="_x35_18" x="152.121" y="134.024" fill="#13AE67" width="60" height="60"/>
<rect id="_x35_16" x="216.407" y="134.024" fill="#F8B62D" width="80" height="60"/>
<rect id="_x35_14" x="345.337" y="134.024" fill="#C9A063" width="85.806" height="60"/>
<rect id="_x35_12" x="433.143" y="134.024" fill="#C9A063" width="94.214" height="60"/>
</svg>
